<svg xmlns="http://www.w3.org/2000/svg" xmlns:xlink="http://www.w3.org/1999/xlink" width="16" height="24" viewBox="0 0 16 24"><defs><path id="cq5ga" d="M633.3 57.94c-.01.11-.04.23-.1.35l-5.14 9.36a.62.62 0 0 1-1.12 0l-5.15-9.38a.74.74 0 0 1-.08-.33 7.1 7.1 0 0 1-.71-3.1c0-3.77 2.91-6.84 6.5-6.84s6.5 3.07 6.5 6.85a7.1 7.1 0 0 1-.7 3.09zm-8.08-3.47c0 1.33 1.02 2.4 2.28 2.4a2.35 2.35 0 0 0 2.28-2.4c0-1.33-1.02-2.4-2.28-2.4a2.35 2.35 0 0 0-2.28 2.4z"/></defs><g><g transform="translate(-619 -46)"><use fill="#25a84a" xlink:href="#cq5ga"/></g></g></svg>